<svg width="152" height="66" viewBox="0 0 152 66" fill="none" xmlns="http://www.w3.org/2000/svg">
<circle cx="51.5" cy="54.5" r="7.5" fill="#F9D247"/>
<ellipse cx="129.5" cy="16.5" rx="7.5" ry="4.5" fill="#F9D247"/>
<path d="M39.257 36.4C38.2437 38.96 37.457 41.68 36.897 44.56H36.097C36.257 43.7867 36.337 43.04 36.337 42.32C36.337 40.72 35.8437 39.4533 34.857 38.52C33.8704 37.56 32.457 37.08 30.617 37.08C29.177 37.08 28.0037 37.44 27.097 38.16C26.217 38.88 25.777 39.9733 25.777 41.44C25.777 42.6667 26.137 43.8267 26.857 44.92C27.6037 45.9867 28.7237 47.32 30.217 48.92C31.337 50.0933 32.217 51.08 32.857 51.88C33.497 52.68 34.0437 53.56 34.497 54.52C34.9504 55.48 35.177 56.4933 35.177 57.56C35.177 59.3467 34.6037 60.84 33.457 62.04C32.3104 63.24 30.8837 64.1333 29.177 64.72C27.497 65.28 25.817 65.56 24.137 65.56C22.4304 65.56 21.1104 65.4133 20.177 65.12C19.2437 64.8267 18.257 64.36 17.217 63.72C16.6304 63.32 16.1637 63.12 15.817 63.12C15.4704 63.12 15.1904 63.2667 14.977 63.56C14.7904 63.8267 14.5104 64.4 14.137 65.28H13.337C13.7637 64.2667 14.177 63.0533 14.577 61.64C15.0037 60.2 15.497 58.2133 16.057 55.68H16.857C16.617 56.6933 16.497 57.64 16.497 58.52C16.497 60.52 17.0437 62.0533 18.137 63.12C19.257 64.16 20.8837 64.68 23.017 64.68C26.457 64.68 28.177 63.28 28.177 60.48C28.177 58.9867 27.817 57.6533 27.097 56.48C26.4037 55.28 25.3504 53.9067 23.937 52.36C22.977 51.2667 22.217 50.36 21.657 49.64C21.097 48.8933 20.617 48.0533 20.217 47.12C19.8437 46.1867 19.657 45.1867 19.657 44.12C19.657 42.4133 20.137 40.96 21.097 39.76C22.0837 38.5333 23.337 37.6267 24.857 37.04C26.377 36.4267 27.9237 36.12 29.497 36.12C30.8837 36.12 32.0704 36.28 33.057 36.6C34.0437 36.92 34.9637 37.3467 35.817 37.88C36.5104 38.3067 36.9504 38.52 37.137 38.52C37.3504 38.52 37.5504 38.36 37.737 38.04C37.9504 37.6933 38.1904 37.1467 38.457 36.4H39.257ZM50.4536 65.48C48.4003 65.48 46.5469 65.0267 44.8936 64.12C43.2403 63.1867 41.9336 61.92 40.9736 60.32C40.0136 58.6933 39.5336 56.84 39.5336 54.76C39.5336 53.08 39.8403 51.52 40.4536 50.08C41.0936 48.6133 41.9736 47.3333 43.0936 46.24C44.2136 45.1467 45.5069 44.2933 46.9736 43.68C48.4403 43.0667 50.0136 42.76 51.6936 42.76C53.7469 42.76 55.6003 43.2267 57.2536 44.16C58.9069 45.0667 60.2136 46.32 61.1736 47.92C62.1336 49.52 62.6136 51.3733 62.6136 53.48C62.6136 55.1333 62.2936 56.6933 61.6536 58.16C61.0136 59.6 60.1336 60.88 59.0136 62C57.8936 63.0933 56.6003 63.9467 55.1336 64.56C53.6669 65.1733 52.1069 65.48 50.4536 65.48ZM50.4936 60.68C51.7736 60.68 52.9069 60.36 53.8936 59.72C54.9069 59.0533 55.6936 58.1733 56.2536 57.08C56.8403 55.96 57.1336 54.7333 57.1336 53.4C57.1336 52.2533 56.9069 51.2533 56.4536 50.4C56.0003 49.52 55.3603 48.8267 54.5336 48.32C53.7069 47.8133 52.7469 47.56 51.6536 47.56C50.3736 47.56 49.2269 47.8933 48.2136 48.56C47.2003 49.2 46.4136 50.0667 45.8536 51.16C45.2936 52.2533 45.0136 53.48 45.0136 54.84C45.0136 55.9867 45.2403 57 45.6936 57.88C46.1469 58.7333 46.7869 59.4133 47.6136 59.92C48.4403 60.4267 49.4003 60.68 50.4936 60.68ZM76.4636 65.48C74.4103 65.48 72.5703 65.0133 70.9436 64.08C69.3169 63.1467 68.0503 61.88 67.1436 60.28C66.2369 58.6533 65.7836 56.8267 65.7836 54.8C65.7836 53.12 66.0903 51.5467 66.7036 50.08C67.3169 48.6133 68.1703 47.3333 69.2636 46.24C70.3836 45.1467 71.6636 44.2933 73.1036 43.68C74.5703 43.0667 76.1303 42.76 77.7836 42.76C79.3836 42.76 80.8369 43.04 82.1436 43.6C83.4503 44.1333 84.5569 44.8933 85.4636 45.88C86.3969 46.84 87.0369 47.96 87.3836 49.24L82.7036 51.16C82.3836 50.04 81.7836 49.16 80.9036 48.52C80.0236 47.88 78.9703 47.56 77.7436 47.56C76.4636 47.56 75.3303 47.9067 74.3436 48.6C73.3569 49.2667 72.5969 50.1467 72.0636 51.24C71.5303 52.3333 71.2636 53.52 71.2636 54.8C71.2636 55.9467 71.4769 56.96 71.9036 57.84C72.3569 58.72 72.9836 59.4133 73.7836 59.92C74.6103 60.4267 75.5436 60.68 76.5836 60.68C77.8903 60.68 79.0369 60.3467 80.0236 59.68C81.0103 58.9867 81.7569 58.08 82.2636 56.96L86.7036 59.16C86.1969 60.3867 85.4369 61.48 84.4236 62.44C83.4103 63.4 82.2236 64.1467 80.8636 64.68C79.5036 65.2133 78.0369 65.48 76.4636 65.48ZM89.9083 65L92.9483 43.24H98.2283L95.1883 65H89.9083ZM93.2683 40.8L94.0683 35.2H99.3483L98.5883 40.8H93.2683ZM107.185 65.48C105.798 65.48 104.558 65.2533 103.465 64.8C102.398 64.3467 101.558 63.68 100.945 62.8C100.331 61.92 100.025 60.84 100.025 59.56C100.025 58.1733 100.371 56.9867 101.065 56C101.758 55.0133 102.718 54.2133 103.945 53.6C105.171 52.96 106.585 52.52 108.185 52.28L115.505 51.12L115.105 55.12L108.945 56.2C107.958 56.3867 107.131 56.7333 106.465 57.24C105.798 57.72 105.465 58.3867 105.465 59.24C105.465 59.9867 105.731 60.5467 106.265 60.92C106.825 61.2933 107.531 61.48 108.385 61.48C109.451 61.48 110.411 61.24 111.265 60.76C112.118 60.2533 112.825 59.5867 113.385 58.76C113.945 57.9333 114.278 57.0267 114.385 56.04L115.145 50.6C115.251 49.88 115.131 49.28 114.785 48.8C114.465 48.2933 114.011 47.9067 113.425 47.64C112.838 47.3733 112.198 47.24 111.505 47.24C110.305 47.24 109.225 47.56 108.265 48.2C107.331 48.84 106.611 49.6533 106.105 50.64L101.985 48.32C102.545 47.1733 103.305 46.2 104.265 45.4C105.251 44.5733 106.385 43.9333 107.665 43.48C108.971 43 110.358 42.76 111.825 42.76C113.585 42.76 115.145 43.1067 116.505 43.8C117.891 44.4933 118.945 45.44 119.665 46.64C120.385 47.84 120.625 49.24 120.385 50.84L118.425 65H113.425L113.945 61.28L115.265 61.32C114.598 62.2533 113.851 63.0267 113.025 63.64C112.198 64.2533 111.291 64.7067 110.305 65C109.345 65.32 108.305 65.48 107.185 65.48ZM123.307 65L127.547 34.72H132.827L128.587 65H123.307Z" fill="#00DFA2"/>
<path d="M38.0364 5.48C37.1564 5.61333 36.5031 5.84 36.0764 6.16C35.6764 6.48 35.3964 6.98667 35.2364 7.68C35.1031 8.37333 35.0364 9.4 35.0364 10.76V33.08L34.0764 33.04L32.9964 33.08L15.6364 11.08V26.44C15.6364 28.0133 15.7164 29.1733 15.8764 29.92C16.0364 30.64 16.3831 31.1733 16.9164 31.52C17.4497 31.84 18.3164 32.0667 19.5164 32.2V33C18.4764 32.92 17.0364 32.88 15.1964 32.88C13.7297 32.88 12.5697 32.92 11.7164 33V32.2C12.5964 32.0667 13.2364 31.84 13.6364 31.52C14.0631 31.2 14.3431 30.6933 14.4764 30C14.6364 29.3067 14.7164 28.28 14.7164 26.92V8.92C14.7164 7.90666 14.6364 7.17333 14.4764 6.72C14.3431 6.26667 14.0631 5.96 13.6364 5.8C13.2364 5.64 12.5964 5.53333 11.7164 5.48V4.68C12.5697 4.76 13.7297 4.8 15.1964 4.8C16.5297 4.8 17.6764 4.76 18.6364 4.68L34.1164 23.76V11.24C34.1164 9.66667 34.0364 8.52 33.8764 7.8C33.7164 7.05333 33.3697 6.52 32.8364 6.2C32.3031 5.85333 31.4364 5.61333 30.2364 5.48V4.68C31.2764 4.76 32.7164 4.8 34.5564 4.8C36.0497 4.8 37.2097 4.76 38.0364 4.68V5.48ZM48.2236 33.48C46.7036 33.48 45.3836 33.2267 44.2636 32.72C43.1436 32.2133 42.2769 31.4933 41.6636 30.56C41.0503 29.6 40.7436 28.4933 40.7436 27.24C40.7436 26.04 41.0103 24.9733 41.5436 24.04C42.0769 23.08 42.9036 22.28 44.0236 21.64C45.1436 21 46.5569 20.5467 48.2636 20.28L55.3836 19.12V23.12L49.2636 24.16C48.2236 24.3467 47.4503 24.68 46.9436 25.16C46.4369 25.64 46.1836 26.2667 46.1836 27.04C46.1836 27.7867 46.4636 28.3867 47.0236 28.84C47.6103 29.2667 48.3303 29.48 49.1836 29.48C50.2769 29.48 51.2369 29.2533 52.0636 28.8C52.9169 28.32 53.5703 27.6667 54.0236 26.84C54.5036 26.0133 54.7436 25.1067 54.7436 24.12V18.52C54.7436 17.5867 54.3703 16.8133 53.6236 16.2C52.9036 15.56 51.9436 15.24 50.7436 15.24C49.6236 15.24 48.6236 15.5467 47.7436 16.16C46.8903 16.7467 46.2636 17.5333 45.8636 18.52L41.5836 16.44C42.0103 15.2933 42.6769 14.3067 43.5836 13.48C44.5169 12.6267 45.6103 11.96 46.8636 11.48C48.1169 11 49.4769 10.76 50.9436 10.76C52.7303 10.76 54.3036 11.0933 55.6636 11.76C57.0236 12.4 58.0769 13.3067 58.8236 14.48C59.5969 15.6267 59.9836 16.9733 59.9836 18.52V33H55.0236V29.28L56.1436 29.2C55.5836 30.1333 54.9169 30.92 54.1436 31.56C53.3703 32.1733 52.4903 32.6533 51.5036 33C50.5169 33.32 49.4236 33.48 48.2236 33.48ZM74.3561 33.24C71.9028 33.24 69.9961 32.5733 68.6361 31.24C67.3028 29.88 66.6361 27.9733 66.6361 25.52V15.92H62.8761V11.24H63.2761C64.3428 11.24 65.1694 10.96 65.7561 10.4C66.3428 9.84 66.6361 9.02667 66.6361 7.96V6.28H71.8761V11.24H76.8761V15.92H71.8761V25.24C71.8761 25.96 71.9961 26.5733 72.2361 27.08C72.5028 27.5867 72.9028 27.9733 73.4361 28.24C73.9961 28.5067 74.7028 28.64 75.5561 28.64C75.7428 28.64 75.9561 28.6267 76.1961 28.6C76.4628 28.5733 76.7161 28.5467 76.9561 28.52V33C76.5828 33.0533 76.1561 33.1067 75.6761 33.16C75.1961 33.2133 74.7561 33.24 74.3561 33.24ZM88.7195 33.48C87.0395 33.48 85.5729 33.1067 84.3195 32.36C83.0929 31.6133 82.1462 30.5733 81.4795 29.24C80.8395 27.9067 80.5195 26.3467 80.5195 24.56V11.24H85.7595V24.12C85.7595 25.0267 85.9329 25.8267 86.2795 26.52C86.6529 27.1867 87.1729 27.72 87.8395 28.12C88.5329 28.4933 89.3062 28.68 90.1595 28.68C91.0129 28.68 91.7729 28.4933 92.4395 28.12C93.1062 27.72 93.6262 27.1733 93.9995 26.48C94.3729 25.7867 94.5595 24.96 94.5595 24V11.24H99.7995V33H94.8395V28.72L95.2795 29.48C94.7729 30.8133 93.9329 31.8133 92.7595 32.48C91.6129 33.1467 90.2662 33.48 88.7195 33.48ZM104.67 33V11.24H109.59V16.08L109.19 15.36C109.697 13.7333 110.484 12.6 111.55 11.96C112.644 11.32 113.95 11 115.47 11H116.75V15.64H114.87C113.377 15.64 112.177 16.1067 111.27 17.04C110.364 17.9467 109.91 19.2267 109.91 20.88V33H104.67ZM129.951 33.48C127.711 33.48 125.751 32.9733 124.071 31.96C122.391 30.9467 121.085 29.5733 120.151 27.84C119.218 26.1067 118.751 24.1867 118.751 22.08C118.751 19.8933 119.218 17.96 120.151 16.28C121.111 14.5733 122.405 13.2267 124.031 12.24C125.685 11.2533 127.525 10.76 129.551 10.76C131.258 10.76 132.751 11.04 134.031 11.6C135.338 12.16 136.445 12.9333 137.351 13.92C138.258 14.9067 138.951 16.04 139.431 17.32C139.911 18.5733 140.151 19.9333 140.151 21.4C140.151 21.7733 140.125 22.16 140.071 22.56C140.045 22.96 139.978 23.3067 139.871 23.6H123.071V19.6H136.911L134.431 21.48C134.671 20.2533 134.605 19.16 134.231 18.2C133.885 17.24 133.298 16.48 132.471 15.92C131.671 15.36 130.698 15.08 129.551 15.08C128.458 15.08 127.485 15.36 126.631 15.92C125.778 16.4533 125.125 17.2533 124.671 18.32C124.245 19.36 124.085 20.6267 124.191 22.12C124.085 23.4533 124.258 24.64 124.711 25.68C125.191 26.6933 125.885 27.48 126.791 28.04C127.725 28.6 128.791 28.88 129.991 28.88C131.191 28.88 132.205 28.6267 133.031 28.12C133.885 27.6133 134.551 26.9333 135.031 26.08L139.271 28.16C138.845 29.2 138.178 30.12 137.271 30.92C136.365 31.72 135.285 32.3467 134.031 32.8C132.805 33.2533 131.445 33.48 129.951 33.48Z" fill="#0079FF"/>
</svg>
